<?xml version="1.0" encoding="utf-8" standalone="no"?>
<!DOCTYPE svg PUBLIC "-//W3C//DTD SVG 1.1//EN"
  "http://www.w3.org/Graphics/SVG/1.1/DTD/svg11.dtd">
<svg xmlns:xlink="http://www.w3.org/1999/xlink" width="576pt" height="432pt" viewBox="0 0 576 432" xmlns="http://www.w3.org/2000/svg" version="1.1">
 <metadata>
  <rdf:RDF xmlns:dc="http://purl.org/dc/elements/1.1/" xmlns:cc="http://creativecommons.org/ns#" xmlns:rdf="http://www.w3.org/1999/02/22-rdf-syntax-ns#">
   <cc:Work>
    <dc:type rdf:resource="http://purl.org/dc/dcmitype/StillImage"/>
    <dc:date>2025-03-19T09:21:48.836198</dc:date>
    <dc:format>image/svg+xml</dc:format>
    <dc:creator>
     <cc:Agent>
      <dc:title>Matplotlib v3.10.1, https://matplotlib.org/</dc:title>
     </cc:Agent>
    </dc:creator>
   </cc:Work>
  </rdf:RDF>
 </metadata>
 <defs>
  <style type="text/css">*{stroke-linejoin: round; stroke-linecap: butt}</style>
 </defs>
 <g id="figure_1">
  <g id="patch_1">
   <path d="M 0 432 
L 576 432 
L 576 0 
L 0 0 
z
" style="fill: #ffffff"/>
  </g>
  <g id="axes_1">
   <g id="patch_2">
    <path d="M 72 384.48 
L 518.4 384.48 
L 518.4 51.84 
L 72 51.84 
z
" style="fill: #ffffff"/>
   </g>
   <g id="FillBetweenPolyCollection_1">
    <defs>
     <path id="mdfe4fd1096" d="M 92.290909 -365.04 
L 92.290909 -266.650583 
L 163.583292 -129.621093 
L 234.875676 -115.676208 
L 306.168059 -109.707482 
L 377.460442 -128.723692 
L 448.752826 -62.64 
L 498.109091 -117.326202 
L 498.109091 -165.095265 
L 498.109091 -165.095265 
L 448.752826 -143.153923 
L 377.460442 -219.359263 
L 306.168059 -225.597358 
L 234.875676 -161.086983 
L 163.583292 -154.187869 
L 92.290909 -365.04 
z
" style="stroke: #1f77b4; stroke-opacity: 0.2"/>
    </defs>
    <g clip-path="url(#p7e7f7d7e9a)">
     <use xlink:href="#mdfe4fd1096" x="0" y="432" style="fill: #1f77b4; fill-opacity: 0.2; stroke: #1f77b4; stroke-opacity: 0.2"/>
    </g>
   </g>
   <g id="FillBetweenPolyCollection_2"/>
   <g id="FillBetweenPolyCollection_3"/>
   <g id="FillBetweenPolyCollection_4"/>
   <g id="FillBetweenPolyCollection_5"/>
   <g id="FillBetweenPolyCollection_6"/>
   <g id="FillBetweenPolyCollection_7"/>
   <g id="FillBetweenPolyCollection_8"/>
   <g id="matplotlib.axis_1">
    <g id="xtick_1">
     <g id="line2d_1">
      <defs>
       <path id="m0e1c6cebcb" d="M 0 0 
L 0 3.5 
" style="stroke: #000000; stroke-width: 0.8"/>
      </defs>
      <g>
       <use xlink:href="#m0e1c6cebcb" x="92.290909" y="384.48" style="stroke: #000000; stroke-width: 0.8"/>
      </g>
     </g>
     <g id="text_1">
      <!-- 0 -->
      <g transform="translate(89.109659 399.078438) scale(0.1 -0.1)">
       <defs>
        <path id="DejaVuSans-30" d="M 2034 4250 
Q 1547 4250 1301 3770 
Q 1056 3291 1056 2328 
Q 1056 1369 1301 889 
Q 1547 409 2034 409 
Q 2525 409 2770 889 
Q 3016 1369 3016 2328 
Q 3016 3291 2770 3770 
Q 2525 4250 2034 4250 
z
M 2034 4750 
Q 2819 4750 3233 4129 
Q 3647 3509 3647 2328 
Q 3647 1150 3233 529 
Q 2819 -91 2034 -91 
Q 1250 -91 836 529 
Q 422 1150 422 2328 
Q 422 3509 836 4129 
Q 1250 4750 2034 4750 
z
" transform="scale(0.015625)"/>
       </defs>
       <use xlink:href="#DejaVuSans-30"/>
      </g>
     </g>
    </g>
    <g id="xtick_2">
     <g id="line2d_2">
      <g>
       <use xlink:href="#m0e1c6cebcb" x="147.131204" y="384.48" style="stroke: #000000; stroke-width: 0.8"/>
      </g>
     </g>
     <g id="text_2">
      <!-- 10 -->
      <g transform="translate(140.768704 399.078438) scale(0.1 -0.1)">
       <defs>
        <path id="DejaVuSans-31" d="M 794 531 
L 1825 531 
L 1825 4091 
L 703 3866 
L 703 4441 
L 1819 4666 
L 2450 4666 
L 2450 531 
L 3481 531 
L 3481 0 
L 794 0 
L 794 531 
z
" transform="scale(0.015625)"/>
       </defs>
       <use xlink:href="#DejaVuSans-31"/>
       <use xlink:href="#DejaVuSans-30" transform="translate(63.623047 0)"/>
      </g>
     </g>
    </g>
    <g id="xtick_3">
     <g id="line2d_3">
      <g>
       <use xlink:href="#m0e1c6cebcb" x="201.971499" y="384.48" style="stroke: #000000; stroke-width: 0.8"/>
      </g>
     </g>
     <g id="text_3">
      <!-- 20 -->
      <g transform="translate(195.608999 399.078438) scale(0.1 -0.1)">
       <defs>
        <path id="DejaVuSans-32" d="M 1228 531 
L 3431 531 
L 3431 0 
L 469 0 
L 469 531 
Q 828 903 1448 1529 
Q 2069 2156 2228 2338 
Q 2531 2678 2651 2914 
Q 2772 3150 2772 3378 
Q 2772 3750 2511 3984 
Q 2250 4219 1831 4219 
Q 1534 4219 1204 4116 
Q 875 4013 500 3803 
L 500 4441 
Q 881 4594 1212 4672 
Q 1544 4750 1819 4750 
Q 2544 4750 2975 4387 
Q 3406 4025 3406 3419 
Q 3406 3131 3298 2873 
Q 3191 2616 2906 2266 
Q 2828 2175 2409 1742 
Q 1991 1309 1228 531 
z
" transform="scale(0.015625)"/>
       </defs>
       <use xlink:href="#DejaVuSans-32"/>
       <use xlink:href="#DejaVuSans-30" transform="translate(63.623047 0)"/>
      </g>
     </g>
    </g>
    <g id="xtick_4">
     <g id="line2d_4">
      <g>
       <use xlink:href="#m0e1c6cebcb" x="256.811794" y="384.48" style="stroke: #000000; stroke-width: 0.8"/>
      </g>
     </g>
     <g id="text_4">
      <!-- 30 -->
      <g transform="translate(250.449294 399.078438) scale(0.1 -0.1)">
       <defs>
        <path id="DejaVuSans-33" d="M 2597 2516 
Q 3050 2419 3304 2112 
Q 3559 1806 3559 1356 
Q 3559 666 3084 287 
Q 2609 -91 1734 -91 
Q 1441 -91 1130 -33 
Q 819 25 488 141 
L 488 750 
Q 750 597 1062 519 
Q 1375 441 1716 441 
Q 2309 441 2620 675 
Q 2931 909 2931 1356 
Q 2931 1769 2642 2001 
Q 2353 2234 1838 2234 
L 1294 2234 
L 1294 2753 
L 1863 2753 
Q 2328 2753 2575 2939 
Q 2822 3125 2822 3475 
Q 2822 3834 2567 4026 
Q 2313 4219 1838 4219 
Q 1578 4219 1281 4162 
Q 984 4106 628 3988 
L 628 4550 
Q 988 4650 1302 4700 
Q 1616 4750 1894 4750 
Q 2613 4750 3031 4423 
Q 3450 4097 3450 3541 
Q 3450 3153 3228 2886 
Q 3006 2619 2597 2516 
z
" transform="scale(0.015625)"/>
       </defs>
       <use xlink:href="#DejaVuSans-33"/>
       <use xlink:href="#DejaVuSans-30" transform="translate(63.623047 0)"/>
      </g>
     </g>
    </g>
    <g id="xtick_5">
     <g id="line2d_5">
      <g>
       <use xlink:href="#m0e1c6cebcb" x="311.652088" y="384.48" style="stroke: #000000; stroke-width: 0.8"/>
      </g>
     </g>
     <g id="text_5">
      <!-- 40 -->
      <g transform="translate(305.289588 399.078438) scale(0.1 -0.1)">
       <defs>
        <path id="DejaVuSans-34" d="M 2419 4116 
L 825 1625 
L 2419 1625 
L 2419 4116 
z
M 2253 4666 
L 3047 4666 
L 3047 1625 
L 3713 1625 
L 3713 1100 
L 3047 1100 
L 3047 0 
L 2419 0 
L 2419 1100 
L 313 1100 
L 313 1709 
L 2253 4666 
z
" transform="scale(0.015625)"/>
       </defs>
       <use xlink:href="#DejaVuSans-34"/>
       <use xlink:href="#DejaVuSans-30" transform="translate(63.623047 0)"/>
      </g>
     </g>
    </g>
    <g id="xtick_6">
     <g id="line2d_6">
      <g>
       <use xlink:href="#m0e1c6cebcb" x="366.492383" y="384.48" style="stroke: #000000; stroke-width: 0.8"/>
      </g>
     </g>
     <g id="text_6">
      <!-- 50 -->
      <g transform="translate(360.129883 399.078438) scale(0.1 -0.1)">
       <defs>
        <path id="DejaVuSans-35" d="M 691 4666 
L 3169 4666 
L 3169 4134 
L 1269 4134 
L 1269 2991 
Q 1406 3038 1543 3061 
Q 1681 3084 1819 3084 
Q 2600 3084 3056 2656 
Q 3513 2228 3513 1497 
Q 3513 744 3044 326 
Q 2575 -91 1722 -91 
Q 1428 -91 1123 -41 
Q 819 9 494 109 
L 494 744 
Q 775 591 1075 516 
Q 1375 441 1709 441 
Q 2250 441 2565 725 
Q 2881 1009 2881 1497 
Q 2881 1984 2565 2268 
Q 2250 2553 1709 2553 
Q 1456 2553 1204 2497 
Q 953 2441 691 2322 
L 691 4666 
z
" transform="scale(0.015625)"/>
       </defs>
       <use xlink:href="#DejaVuSans-35"/>
       <use xlink:href="#DejaVuSans-30" transform="translate(63.623047 0)"/>
      </g>
     </g>
    </g>
    <g id="xtick_7">
     <g id="line2d_7">
      <g>
       <use xlink:href="#m0e1c6cebcb" x="421.332678" y="384.48" style="stroke: #000000; stroke-width: 0.8"/>
      </g>
     </g>
     <g id="text_7">
      <!-- 60 -->
      <g transform="translate(414.970178 399.078438) scale(0.1 -0.1)">
       <defs>
        <path id="DejaVuSans-36" d="M 2113 2584 
Q 1688 2584 1439 2293 
Q 1191 2003 1191 1497 
Q 1191 994 1439 701 
Q 1688 409 2113 409 
Q 2538 409 2786 701 
Q 3034 994 3034 1497 
Q 3034 2003 2786 2293 
Q 2538 2584 2113 2584 
z
M 3366 4563 
L 3366 3988 
Q 3128 4100 2886 4159 
Q 2644 4219 2406 4219 
Q 1781 4219 1451 3797 
Q 1122 3375 1075 2522 
Q 1259 2794 1537 2939 
Q 1816 3084 2150 3084 
Q 2853 3084 3261 2657 
Q 3669 2231 3669 1497 
Q 3669 778 3244 343 
Q 2819 -91 2113 -91 
Q 1303 -91 875 529 
Q 447 1150 447 2328 
Q 447 3434 972 4092 
Q 1497 4750 2381 4750 
Q 2619 4750 2861 4703 
Q 3103 4656 3366 4563 
z
" transform="scale(0.015625)"/>
       </defs>
       <use xlink:href="#DejaVuSans-36"/>
       <use xlink:href="#DejaVuSans-30" transform="translate(63.623047 0)"/>
      </g>
     </g>
    </g>
    <g id="xtick_8">
     <g id="line2d_8">
      <g>
       <use xlink:href="#m0e1c6cebcb" x="476.172973" y="384.48" style="stroke: #000000; stroke-width: 0.8"/>
      </g>
     </g>
     <g id="text_8">
      <!-- 70 -->
      <g transform="translate(469.810473 399.078438) scale(0.1 -0.1)">
       <defs>
        <path id="DejaVuSans-37" d="M 525 4666 
L 3525 4666 
L 3525 4397 
L 1831 0 
L 1172 0 
L 2766 4134 
L 525 4134 
L 525 4666 
z
" transform="scale(0.015625)"/>
       </defs>
       <use xlink:href="#DejaVuSans-37"/>
       <use xlink:href="#DejaVuSans-30" transform="translate(63.623047 0)"/>
      </g>
     </g>
    </g>
    <g id="text_9">
     <!-- x -->
     <g transform="translate(292.240625 412.756563) scale(0.1 -0.1)">
      <defs>
       <path id="DejaVuSans-78" d="M 3513 3500 
L 2247 1797 
L 3578 0 
L 2900 0 
L 1881 1375 
L 863 0 
L 184 0 
L 1544 1831 
L 300 3500 
L 978 3500 
L 1906 2253 
L 2834 3500 
L 3513 3500 
z
" transform="scale(0.015625)"/>
      </defs>
      <use xlink:href="#DejaVuSans-78"/>
     </g>
    </g>
   </g>
   <g id="matplotlib.axis_2">
    <g id="ytick_1">
     <g id="line2d_9">
      <defs>
       <path id="m8db34b6926" d="M 0 0 
L -3.5 0 
" style="stroke: #000000; stroke-width: 0.8"/>
      </defs>
      <g>
       <use xlink:href="#m8db34b6926" x="72" y="346.681973" style="stroke: #000000; stroke-width: 0.8"/>
      </g>
     </g>
     <g id="text_10">
      <!-- 10 -->
      <g transform="translate(52.275 350.481192) scale(0.1 -0.1)">
       <use xlink:href="#DejaVuSans-31"/>
       <use xlink:href="#DejaVuSans-30" transform="translate(63.623047 0)"/>
      </g>
     </g>
    </g>
    <g id="ytick_2">
     <g id="line2d_10">
      <g>
       <use xlink:href="#m8db34b6926" x="72" y="300.483762" style="stroke: #000000; stroke-width: 0.8"/>
      </g>
     </g>
     <g id="text_11">
      <!-- 15 -->
      <g transform="translate(52.275 304.282981) scale(0.1 -0.1)">
       <use xlink:href="#DejaVuSans-31"/>
       <use xlink:href="#DejaVuSans-35" transform="translate(63.623047 0)"/>
      </g>
     </g>
    </g>
    <g id="ytick_3">
     <g id="line2d_11">
      <g>
       <use xlink:href="#m8db34b6926" x="72" y="254.285551" style="stroke: #000000; stroke-width: 0.8"/>
      </g>
     </g>
     <g id="text_12">
      <!-- 20 -->
      <g transform="translate(52.275 258.08477) scale(0.1 -0.1)">
       <use xlink:href="#DejaVuSans-32"/>
       <use xlink:href="#DejaVuSans-30" transform="translate(63.623047 0)"/>
      </g>
     </g>
    </g>
    <g id="ytick_4">
     <g id="line2d_12">
      <g>
       <use xlink:href="#m8db34b6926" x="72" y="208.08734" style="stroke: #000000; stroke-width: 0.8"/>
      </g>
     </g>
     <g id="text_13">
      <!-- 25 -->
      <g transform="translate(52.275 211.886558) scale(0.1 -0.1)">
       <use xlink:href="#DejaVuSans-32"/>
       <use xlink:href="#DejaVuSans-35" transform="translate(63.623047 0)"/>
      </g>
     </g>
    </g>
    <g id="ytick_5">
     <g id="line2d_13">
      <g>
       <use xlink:href="#m8db34b6926" x="72" y="161.889129" style="stroke: #000000; stroke-width: 0.8"/>
      </g>
     </g>
     <g id="text_14">
      <!-- 30 -->
      <g transform="translate(52.275 165.688347) scale(0.1 -0.1)">
       <use xlink:href="#DejaVuSans-33"/>
       <use xlink:href="#DejaVuSans-30" transform="translate(63.623047 0)"/>
      </g>
     </g>
    </g>
    <g id="ytick_6">
     <g id="line2d_14">
      <g>
       <use xlink:href="#m8db34b6926" x="72" y="115.690918" style="stroke: #000000; stroke-width: 0.8"/>
      </g>
     </g>
     <g id="text_15">
      <!-- 35 -->
      <g transform="translate(52.275 119.490136) scale(0.1 -0.1)">
       <use xlink:href="#DejaVuSans-33"/>
       <use xlink:href="#DejaVuSans-35" transform="translate(63.623047 0)"/>
      </g>
     </g>
    </g>
    <g id="ytick_7">
     <g id="line2d_15">
      <g>
       <use xlink:href="#m8db34b6926" x="72" y="69.492706" style="stroke: #000000; stroke-width: 0.8"/>
      </g>
     </g>
     <g id="text_16">
      <!-- 40 -->
      <g transform="translate(52.275 73.291925) scale(0.1 -0.1)">
       <use xlink:href="#DejaVuSans-34"/>
       <use xlink:href="#DejaVuSans-30" transform="translate(63.623047 0)"/>
      </g>
     </g>
    </g>
    <g id="text_17">
     <!-- y -->
     <g transform="translate(46.195312 221.119375) rotate(-90) scale(0.1 -0.1)">
      <defs>
       <path id="DejaVuSans-79" d="M 2059 -325 
Q 1816 -950 1584 -1140 
Q 1353 -1331 966 -1331 
L 506 -1331 
L 506 -850 
L 844 -850 
Q 1081 -850 1212 -737 
Q 1344 -625 1503 -206 
L 1606 56 
L 191 3500 
L 800 3500 
L 1894 763 
L 2988 3500 
L 3597 3500 
L 2059 -325 
z
" transform="scale(0.015625)"/>
      </defs>
      <use xlink:href="#DejaVuSans-79"/>
     </g>
    </g>
   </g>
   <g id="line2d_16">
    <path d="M 92.290909 116.154708 
L 163.583292 290.095519 
L 234.875676 293.618405 
L 306.168059 264.34758 
L 377.460442 257.958523 
L 448.752826 329.103039 
L 498.109091 290.789267 
" clip-path="url(#p7e7f7d7e9a)" style="fill: none; stroke: #1f77b4; stroke-width: 4; stroke-linecap: square"/>
   </g>
   <g id="line2d_17">
    <path d="M 93.011034 117.911686 
L 93.731159 119.668664 
L 94.451284 121.425642 
L 95.171409 123.18262 
L 95.891535 124.939598 
L 96.61166 126.696576 
L 97.331785 128.453554 
L 98.05191 130.210532 
L 98.772035 131.967509 
L 99.49216 133.724487 
L 100.212285 135.481465 
L 100.93241 137.238443 
L 101.652535 138.995421 
L 102.37266 140.752399 
L 103.092785 142.509377 
L 103.81291 144.266355 
L 104.533036 146.023332 
L 105.253161 147.78031 
L 105.973286 149.537288 
L 106.693411 151.294266 
L 107.413536 153.051244 
L 108.133661 154.808222 
L 108.853786 156.5652 
L 109.573911 158.322178 
L 110.294036 160.079156 
L 111.014161 161.836133 
L 111.734286 163.593111 
L 112.454411 165.350089 
L 113.174537 167.107067 
L 113.894662 168.864045 
L 114.614787 170.621023 
L 115.334912 172.378001 
L 116.055037 174.134979 
L 116.775162 175.891956 
L 117.495287 177.648934 
L 118.215412 179.405912 
L 118.935537 181.16289 
L 119.655662 182.919868 
L 120.375787 184.676846 
L 121.095912 186.433824 
L 121.816038 188.190802 
L 122.536163 189.94778 
L 123.256288 191.704757 
L 123.976413 193.461735 
L 124.696538 195.218713 
L 125.416663 196.975691 
L 126.136788 198.732669 
L 126.856913 200.489647 
L 127.577038 202.246625 
L 128.297163 204.003603 
L 129.017288 205.76058 
L 129.737413 207.517558 
L 130.457539 209.274536 
L 131.177664 211.031514 
L 131.897789 212.788492 
L 132.617914 214.54547 
L 133.338039 216.302448 
L 134.058164 218.059426 
L 134.778289 219.816404 
L 135.498414 221.573381 
L 136.218539 223.330359 
L 136.938664 225.087337 
L 137.658789 226.844315 
L 138.378914 228.601293 
L 139.09904 230.358271 
L 139.819165 232.115249 
L 140.53929 233.872227 
L 141.259415 235.629204 
L 141.97954 237.386182 
L 142.699665 239.14316 
L 143.41979 240.900138 
L 144.139915 242.657116 
L 144.86004 244.414094 
L 145.580165 246.171072 
L 146.30029 247.92805 
L 147.020415 249.685028 
L 147.740541 251.442005 
L 148.460666 253.198983 
L 149.180791 254.955961 
L 149.900916 256.712939 
L 150.621041 258.469917 
L 151.341166 260.226895 
L 152.061291 261.983873 
L 152.781416 263.740851 
L 153.501541 265.497828 
L 154.221666 267.254806 
L 154.941791 269.011784 
L 155.661916 270.768762 
L 156.382042 272.52574 
L 157.102167 274.282718 
L 157.822292 276.039696 
L 158.542417 277.796674 
L 159.262542 279.553652 
L 159.982667 281.310629 
L 160.702792 283.067607 
L 161.422917 284.824585 
L 162.143042 286.581563 
L 162.863167 288.338541 
L 163.583292 290.095519 
" clip-path="url(#p7e7f7d7e9a)" style="fill: none; stroke: #466be3; stroke-width: 4; stroke-linecap: square"/>
   </g>
   <g id="line2d_18">
    <path d="M 164.303417 290.131104 
L 165.023543 290.166688 
L 165.743668 290.202273 
L 166.463793 290.237858 
L 167.183918 290.273442 
L 167.904043 290.309027 
L 168.624168 290.344612 
L 169.344293 290.380196 
L 170.064418 290.415781 
L 170.784543 290.451366 
L 171.504668 290.486951 
L 172.224793 290.522535 
L 172.944918 290.55812 
L 173.665044 290.593705 
L 174.385169 290.629289 
L 175.105294 290.664874 
L 175.825419 290.700459 
L 176.545544 290.736043 
L 177.265669 290.771628 
L 177.985794 290.807213 
L 178.705919 290.842798 
L 179.426044 290.878382 
L 180.146169 290.913967 
L 180.866294 290.949552 
L 181.586419 290.985136 
L 182.306545 291.020721 
L 183.02667 291.056306 
L 183.746795 291.091891 
L 184.46692 291.127475 
L 185.187045 291.16306 
L 185.90717 291.198645 
L 186.627295 291.234229 
L 187.34742 291.269814 
L 188.067545 291.305399 
L 188.78767 291.340983 
L 189.507795 291.376568 
L 190.22792 291.412153 
L 190.948046 291.447738 
" clip-path="url(#p7e7f7d7e9a)" style="fill: none; stroke: #28bceb; stroke-width: 4; stroke-linecap: square"/>
   </g>
   <g id="line2d_19">
    <path d="M 191.668171 291.483322 
L 192.388296 291.518907 
L 193.108421 291.554492 
L 193.828546 291.590076 
L 194.548671 291.625661 
L 195.268796 291.661246 
L 195.988921 291.69683 
L 196.709046 291.732415 
L 197.429171 291.768 
L 198.149296 291.803585 
L 198.869421 291.839169 
L 199.589547 291.874754 
L 200.309672 291.910339 
L 201.029797 291.945923 
L 201.749922 291.981508 
L 202.470047 292.017093 
L 203.190172 292.052678 
L 203.910297 292.088262 
L 204.630422 292.123847 
L 205.350547 292.159432 
L 206.070672 292.195016 
L 206.790797 292.230601 
L 207.510922 292.266186 
L 208.231048 292.30177 
L 208.951173 292.337355 
L 209.671298 292.37294 
L 210.391423 292.408525 
L 211.111548 292.444109 
L 211.831673 292.479694 
L 212.551798 292.515279 
L 213.271923 292.550863 
L 213.992048 292.586448 
L 214.712173 292.622033 
L 215.432298 292.657617 
L 216.152423 292.693202 
L 216.872549 292.728787 
L 217.592674 292.764372 
L 218.312799 292.799956 
L 219.032924 292.835541 
L 219.753049 292.871126 
L 220.473174 292.90671 
L 221.193299 292.942295 
L 221.913424 292.97788 
L 222.633549 293.013465 
L 223.353674 293.049049 
L 224.073799 293.084634 
L 224.793925 293.120219 
L 225.51405 293.155803 
L 226.234175 293.191388 
L 226.9543 293.226973 
L 227.674425 293.262557 
L 228.39455 293.298142 
L 229.114675 293.333727 
L 229.8348 293.369312 
L 230.554925 293.404896 
L 231.27505 293.440481 
L 231.995175 293.476066 
L 232.7153 293.51165 
L 233.435426 293.547235 
L 234.155551 293.58282 
L 234.875676 293.618405 
" clip-path="url(#p7e7f7d7e9a)" style="fill: none; stroke: #32f298; stroke-width: 4; stroke-linecap: square"/>
   </g>
   <g id="line2d_20">
    <path d="M 235.595801 293.32274 
L 236.315926 293.027075 
L 237.036051 292.73141 
L 237.756176 292.435745 
L 238.476301 292.14008 
L 239.196426 291.844415 
L 239.916551 291.54875 
L 240.636676 291.253085 
L 241.356801 290.95742 
L 242.076927 290.661756 
L 242.797052 290.366091 
L 243.517177 290.070426 
L 244.237302 289.774761 
L 244.957427 289.479096 
L 245.677552 289.183431 
L 246.397677 288.887766 
L 247.117802 288.592101 
L 247.837927 288.296436 
L 248.558052 288.000772 
L 249.278177 287.705107 
L 249.998302 287.409442 
L 250.718428 287.113777 
L 251.438553 286.818112 
L 252.158678 286.522447 
L 252.878803 286.226782 
L 253.598928 285.931117 
L 254.319053 285.635452 
L 255.039178 285.339788 
L 255.759303 285.044123 
L 256.479428 284.748458 
L 257.199553 284.452793 
L 257.919678 284.157128 
L 258.639803 283.861463 
L 259.359929 283.565798 
L 260.080054 283.270133 
L 260.800179 282.974468 
L 261.520304 282.678803 
L 262.240429 282.383139 
L 262.960554 282.087474 
L 263.680679 281.791809 
L 264.400804 281.496144 
L 265.120929 281.200479 
L 265.841054 280.904814 
L 266.561179 280.609149 
L 267.281304 280.313484 
L 268.00143 280.017819 
L 268.721555 279.722155 
L 269.44168 279.42649 
L 270.161805 279.130825 
L 270.88193 278.83516 
L 271.602055 278.539495 
L 272.32218 278.24383 
L 273.042305 277.948165 
L 273.76243 277.6525 
L 274.482555 277.356835 
L 275.20268 277.06117 
L 275.922805 276.765506 
L 276.642931 276.469841 
L 277.363056 276.174176 
L 278.083181 275.878511 
L 278.803306 275.582846 
L 279.523431 275.287181 
L 280.243556 274.991516 
L 280.963681 274.695851 
L 281.683806 274.400186 
L 282.403931 274.104522 
L 283.124056 273.808857 
L 283.844181 273.513192 
L 284.564306 273.217527 
L 285.284432 272.921862 
L 286.004557 272.626197 
L 286.724682 272.330532 
L 287.444807 272.034867 
L 288.164932 271.739202 
L 288.885057 271.443538 
L 289.605182 271.147873 
L 290.325307 270.852208 
L 291.045432 270.556543 
L 291.765557 270.260878 
L 292.485682 269.965213 
L 293.205807 269.669548 
L 293.925933 269.373883 
L 294.646058 269.078218 
L 295.366183 268.782553 
L 296.086308 268.486889 
L 296.806433 268.191224 
L 297.526558 267.895559 
L 298.246683 267.599894 
L 298.966808 267.304229 
L 299.686933 267.008564 
L 300.407058 266.712899 
L 301.127183 266.417234 
L 301.847308 266.121569 
L 302.567434 265.825905 
L 303.287559 265.53024 
L 304.007684 265.234575 
L 304.727809 264.93891 
L 305.447934 264.643245 
L 306.168059 264.34758 
" clip-path="url(#p7e7f7d7e9a)" style="fill: none; stroke: #a4fc3c; stroke-width: 4; stroke-linecap: square"/>
   </g>
   <g id="line2d_21">
    <path d="M 306.888184 264.283044 
L 307.608309 264.218508 
L 308.328434 264.153972 
L 309.048559 264.089436 
L 309.768684 264.0249 
L 310.488809 263.960364 
L 311.208935 263.895829 
L 311.92906 263.831293 
L 312.649185 263.766757 
L 313.36931 263.702221 
L 314.089435 263.637685 
L 314.80956 263.573149 
L 315.529685 263.508613 
L 316.24981 263.444077 
L 316.969935 263.379541 
L 317.69006 263.315005 
L 318.410185 263.250469 
L 319.13031 263.185933 
L 319.850436 263.121397 
L 320.570561 263.056861 
L 321.290686 262.992325 
L 322.010811 262.92779 
L 322.730936 262.863254 
L 323.451061 262.798718 
L 324.171186 262.734182 
L 324.891311 262.669646 
L 325.611436 262.60511 
L 326.331561 262.540574 
L 327.051686 262.476038 
L 327.771811 262.411502 
L 328.491937 262.346966 
L 329.212062 262.28243 
L 329.932187 262.217894 
L 330.652312 262.153358 
L 331.372437 262.088822 
L 332.092562 262.024286 
L 332.812687 261.959751 
L 333.532812 261.895215 
L 334.252937 261.830679 
L 334.973062 261.766143 
L 335.693187 261.701607 
L 336.413312 261.637071 
L 337.133438 261.572535 
L 337.853563 261.507999 
L 338.573688 261.443463 
L 339.293813 261.378927 
L 340.013938 261.314391 
L 340.734063 261.249855 
L 341.454188 261.185319 
L 342.174313 261.120783 
L 342.894438 261.056247 
L 343.614563 260.991712 
L 344.334688 260.927176 
L 345.054813 260.86264 
L 345.774939 260.798104 
L 346.495064 260.733568 
L 347.215189 260.669032 
L 347.935314 260.604496 
L 348.655439 260.53996 
L 349.375564 260.475424 
L 350.095689 260.410888 
L 350.815814 260.346352 
L 351.535939 260.281816 
L 352.256064 260.21728 
L 352.976189 260.152744 
L 353.696314 260.088208 
L 354.41644 260.023673 
L 355.136565 259.959137 
L 355.85669 259.894601 
L 356.576815 259.830065 
L 357.29694 259.765529 
L 358.017065 259.700993 
L 358.73719 259.636457 
L 359.457315 259.571921 
L 360.17744 259.507385 
L 360.897565 259.442849 
L 361.61769 259.378313 
L 362.337816 259.313777 
L 363.057941 259.249241 
L 363.778066 259.184705 
L 364.498191 259.120169 
L 365.218316 259.055634 
L 365.938441 258.991098 
L 366.658566 258.926562 
L 367.378691 258.862026 
L 368.098816 258.79749 
L 368.818941 258.732954 
L 369.539066 258.668418 
L 370.259191 258.603882 
L 370.979317 258.539346 
L 371.699442 258.47481 
L 372.419567 258.410274 
L 373.139692 258.345738 
L 373.859817 258.281202 
L 374.579942 258.216666 
L 375.300067 258.15213 
L 376.020192 258.087594 
L 376.740317 258.023059 
L 377.460442 257.958523 
" clip-path="url(#p7e7f7d7e9a)" style="fill: none; stroke: #eecf3a; stroke-width: 4; stroke-linecap: square"/>
   </g>
   <g id="line2d_22">
    <path d="M 378.180567 258.677154 
L 378.900692 259.395786 
L 379.620818 260.114417 
L 380.340943 260.833049 
L 381.061068 261.55168 
L 381.781193 262.270311 
L 382.501318 262.988943 
L 383.221443 263.707574 
L 383.941568 264.426206 
L 384.661693 265.144837 
L 385.381818 265.863469 
L 386.101943 266.5821 
L 386.822068 267.300732 
L 387.542193 268.019363 
L 388.262319 268.737995 
L 388.982444 269.456626 
L 389.702569 270.175258 
L 390.422694 270.893889 
L 391.142819 271.612521 
L 391.862944 272.331152 
L 392.583069 273.049784 
L 393.303194 273.768415 
L 394.023319 274.487047 
L 394.743444 275.205678 
L 395.463569 275.924309 
L 396.183694 276.642941 
L 396.90382 277.361572 
L 397.623945 278.080204 
L 398.34407 278.798835 
L 399.064195 279.517467 
L 399.78432 280.236098 
L 400.504445 280.95473 
L 401.22457 281.673361 
L 401.944695 282.391993 
L 402.66482 283.110624 
L 403.384945 283.829256 
L 404.10507 284.547887 
L 404.825195 285.266519 
L 405.545321 285.98515 
L 406.265446 286.703782 
L 406.985571 287.422413 
L 407.705696 288.141045 
L 408.425821 288.859676 
L 409.145946 289.578307 
L 409.866071 290.296939 
L 410.586196 291.01557 
L 411.306321 291.734202 
L 412.026446 292.452833 
L 412.746571 293.171465 
L 413.466696 293.890096 
L 414.186822 294.608728 
L 414.906947 295.327359 
L 415.627072 296.045991 
L 416.347197 296.764622 
L 417.067322 297.483254 
L 417.787447 298.201885 
L 418.507572 298.920517 
L 419.227697 299.639148 
L 419.947822 300.35778 
L 420.667947 301.076411 
L 421.388072 301.795043 
L 422.108197 302.513674 
L 422.828323 303.232305 
L 423.548448 303.950937 
L 424.268573 304.669568 
L 424.988698 305.3882 
L 425.708823 306.106831 
L 426.428948 306.825463 
L 427.149073 307.544094 
L 427.869198 308.262726 
L 428.589323 308.981357 
L 429.309448 309.699989 
L 430.029573 310.41862 
L 430.749698 311.137252 
L 431.469824 311.855883 
L 432.189949 312.574515 
L 432.910074 313.293146 
L 433.630199 314.011778 
L 434.350324 314.730409 
L 435.070449 315.449041 
L 435.790574 316.167672 
L 436.510699 316.886303 
L 437.230824 317.604935 
L 437.950949 318.323566 
L 438.671074 319.042198 
L 439.391199 319.760829 
L 440.111325 320.479461 
L 440.83145 321.198092 
L 441.551575 321.916724 
L 442.2717 322.635355 
L 442.991825 323.353987 
L 443.71195 324.072618 
L 444.432075 324.79125 
L 445.1522 325.509881 
L 445.872325 326.228513 
L 446.59245 326.947144 
L 447.312575 327.665776 
L 448.0327 328.384407 
L 448.752826 329.103039 
" clip-path="url(#p7e7f7d7e9a)" style="fill: none; stroke: #fb7e21; stroke-width: 4; stroke-linecap: square"/>
   </g>
   <g id="line2d_23">
    <path d="M 449.251374 328.716031 
L 449.749922 328.329023 
L 450.24847 327.942015 
L 450.747018 327.555007 
L 451.245566 327.168 
L 451.744114 326.780992 
L 452.242662 326.393984 
L 452.741211 326.006976 
L 453.239759 325.619968 
L 453.738307 325.232961 
L 454.236855 324.845953 
L 454.735403 324.458945 
L 455.233951 324.071937 
L 455.732499 323.684929 
L 456.231048 323.297922 
L 456.729596 322.910914 
L 457.228144 322.523906 
L 457.726692 322.136898 
L 458.22524 321.74989 
L 458.723788 321.362883 
L 459.222336 320.975875 
L 459.720885 320.588867 
L 460.219433 320.201859 
L 460.717981 319.814851 
L 461.216529 319.427844 
L 461.715077 319.040836 
L 462.213625 318.653828 
L 462.712173 318.26682 
L 463.210721 317.879813 
L 463.70927 317.492805 
L 464.207818 317.105797 
L 464.706366 316.718789 
L 465.204914 316.331781 
L 465.703462 315.944774 
L 466.20201 315.557766 
L 466.700558 315.170758 
L 467.199107 314.78375 
L 467.697655 314.396742 
L 468.196203 314.009735 
L 468.694751 313.622727 
L 469.193299 313.235719 
L 469.691847 312.848711 
L 470.190395 312.461703 
L 470.688943 312.074696 
L 471.187492 311.687688 
L 471.68604 311.30068 
L 472.184588 310.913672 
L 472.683136 310.526664 
L 473.181684 310.139657 
L 473.680232 309.752649 
L 474.17878 309.365641 
L 474.677329 308.978633 
L 475.175877 308.591625 
L 475.674425 308.204618 
L 476.172973 307.81761 
L 476.671521 307.430602 
L 477.170069 307.043594 
L 477.668617 306.656586 
L 478.167166 306.269579 
L 478.665714 305.882571 
L 479.164262 305.495563 
L 479.66281 305.108555 
L 480.161358 304.721548 
L 480.659906 304.33454 
L 481.158454 303.947532 
L 481.657002 303.560524 
L 482.155551 303.173516 
L 482.654099 302.786509 
L 483.152647 302.399501 
L 483.651195 302.012493 
L 484.149743 301.625485 
L 484.648291 301.238477 
L 485.146839 300.85147 
L 485.645388 300.464462 
L 486.143936 300.077454 
L 486.642484 299.690446 
L 487.141032 299.303438 
L 487.63958 298.916431 
L 488.138128 298.529423 
L 488.636676 298.142415 
L 489.135224 297.755407 
L 489.633773 297.368399 
L 490.132321 296.981392 
L 490.630869 296.594384 
L 491.129417 296.207376 
L 491.627965 295.820368 
L 492.126513 295.43336 
L 492.625061 295.046353 
L 493.12361 294.659345 
L 493.622158 294.272337 
L 494.120706 293.885329 
L 494.619254 293.498321 
L 495.117802 293.111314 
L 495.61635 292.724306 
L 496.114898 292.337298 
L 496.613447 291.95029 
L 497.111995 291.563282 
L 497.610543 291.176275 
L 498.109091 290.789267 
" clip-path="url(#p7e7f7d7e9a)" style="fill: none; stroke: #d02f05; stroke-width: 4; stroke-linecap: square"/>
   </g>
   <g id="line2d_24"/>
   <g id="line2d_25"/>
   <g id="line2d_26"/>
   <g id="line2d_27"/>
   <g id="line2d_28"/>
   <g id="line2d_29"/>
   <g id="line2d_30"/>
   <g id="patch_3">
    <path d="M 72 384.48 
L 72 51.84 
" style="fill: none; stroke: #000000; stroke-width: 0.8; stroke-linejoin: miter; stroke-linecap: square"/>
   </g>
   <g id="patch_4">
    <path d="M 518.4 384.48 
L 518.4 51.84 
" style="fill: none; stroke: #000000; stroke-width: 0.8; stroke-linejoin: miter; stroke-linecap: square"/>
   </g>
   <g id="patch_5">
    <path d="M 72 384.48 
L 518.4 384.48 
" style="fill: none; stroke: #000000; stroke-width: 0.8; stroke-linejoin: miter; stroke-linecap: square"/>
   </g>
   <g id="patch_6">
    <path d="M 72 51.84 
L 518.4 51.84 
" style="fill: none; stroke: #000000; stroke-width: 0.8; stroke-linejoin: miter; stroke-linecap: square"/>
   </g>
   <g id="legend_1">
    <g id="patch_7">
     <path d="M 380.246875 177.265 
L 511.4 177.265 
Q 513.4 177.265 513.4 175.265 
L 513.4 58.84 
Q 513.4 56.84 511.4 56.84 
L 380.246875 56.84 
Q 378.246875 56.84 378.246875 58.84 
L 378.246875 175.265 
Q 378.246875 177.265 380.246875 177.265 
z
" style="fill: #ffffff; opacity: 0.8; stroke: #cccccc; stroke-linejoin: miter"/>
    </g>
    <g id="text_18">
     <!-- Group -->
     <g transform="translate(430.603906 68.438437) scale(0.1 -0.1)">
      <defs>
       <path id="DejaVuSans-47" d="M 3809 666 
L 3809 1919 
L 2778 1919 
L 2778 2438 
L 4434 2438 
L 4434 434 
Q 4069 175 3628 42 
Q 3188 -91 2688 -91 
Q 1594 -91 976 548 
Q 359 1188 359 2328 
Q 359 3472 976 4111 
Q 1594 4750 2688 4750 
Q 3144 4750 3555 4637 
Q 3966 4525 4313 4306 
L 4313 3634 
Q 3963 3931 3569 4081 
Q 3175 4231 2741 4231 
Q 1884 4231 1454 3753 
Q 1025 3275 1025 2328 
Q 1025 1384 1454 906 
Q 1884 428 2741 428 
Q 3075 428 3337 486 
Q 3600 544 3809 666 
z
" transform="scale(0.015625)"/>
       <path id="DejaVuSans-72" d="M 2631 2963 
Q 2534 3019 2420 3045 
Q 2306 3072 2169 3072 
Q 1681 3072 1420 2755 
Q 1159 2438 1159 1844 
L 1159 0 
L 581 0 
L 581 3500 
L 1159 3500 
L 1159 2956 
Q 1341 3275 1631 3429 
Q 1922 3584 2338 3584 
Q 2397 3584 2469 3576 
Q 2541 3569 2628 3553 
L 2631 2963 
z
" transform="scale(0.015625)"/>
       <path id="DejaVuSans-6f" d="M 1959 3097 
Q 1497 3097 1228 2736 
Q 959 2375 959 1747 
Q 959 1119 1226 758 
Q 1494 397 1959 397 
Q 2419 397 2687 759 
Q 2956 1122 2956 1747 
Q 2956 2369 2687 2733 
Q 2419 3097 1959 3097 
z
M 1959 3584 
Q 2709 3584 3137 3096 
Q 3566 2609 3566 1747 
Q 3566 888 3137 398 
Q 2709 -91 1959 -91 
Q 1206 -91 779 398 
Q 353 888 353 1747 
Q 353 2609 779 3096 
Q 1206 3584 1959 3584 
z
" transform="scale(0.015625)"/>
       <path id="DejaVuSans-75" d="M 544 1381 
L 544 3500 
L 1119 3500 
L 1119 1403 
Q 1119 906 1312 657 
Q 1506 409 1894 409 
Q 2359 409 2629 706 
Q 2900 1003 2900 1516 
L 2900 3500 
L 3475 3500 
L 3475 0 
L 2900 0 
L 2900 538 
Q 2691 219 2414 64 
Q 2138 -91 1772 -91 
Q 1169 -91 856 284 
Q 544 659 544 1381 
z
M 1991 3584 
L 1991 3584 
z
" transform="scale(0.015625)"/>
       <path id="DejaVuSans-70" d="M 1159 525 
L 1159 -1331 
L 581 -1331 
L 581 3500 
L 1159 3500 
L 1159 2969 
Q 1341 3281 1617 3432 
Q 1894 3584 2278 3584 
Q 2916 3584 3314 3078 
Q 3713 2572 3713 1747 
Q 3713 922 3314 415 
Q 2916 -91 2278 -91 
Q 1894 -91 1617 61 
Q 1341 213 1159 525 
z
M 3116 1747 
Q 3116 2381 2855 2742 
Q 2594 3103 2138 3103 
Q 1681 3103 1420 2742 
Q 1159 2381 1159 1747 
Q 1159 1113 1420 752 
Q 1681 391 2138 391 
Q 2594 391 2855 752 
Q 3116 1113 3116 1747 
z
" transform="scale(0.015625)"/>
      </defs>
      <use xlink:href="#DejaVuSans-47"/>
      <use xlink:href="#DejaVuSans-72" transform="translate(77.490234 0)"/>
      <use xlink:href="#DejaVuSans-6f" transform="translate(116.353516 0)"/>
      <use xlink:href="#DejaVuSans-75" transform="translate(177.535156 0)"/>
      <use xlink:href="#DejaVuSans-70" transform="translate(240.914062 0)"/>
     </g>
    </g>
    <g id="line2d_31">
     <path d="M 382.246875 79.616562 
L 392.246875 79.616562 
L 402.246875 79.616562 
" style="fill: none; stroke: #466be3; stroke-width: 4; stroke-linecap: square"/>
    </g>
    <g id="text_19">
     <!-- She enters -->
     <g transform="translate(410.246875 83.116562) scale(0.1 -0.1)">
      <defs>
       <path id="DejaVuSans-53" d="M 3425 4513 
L 3425 3897 
Q 3066 4069 2747 4153 
Q 2428 4238 2131 4238 
Q 1616 4238 1336 4038 
Q 1056 3838 1056 3469 
Q 1056 3159 1242 3001 
Q 1428 2844 1947 2747 
L 2328 2669 
Q 3034 2534 3370 2195 
Q 3706 1856 3706 1288 
Q 3706 609 3251 259 
Q 2797 -91 1919 -91 
Q 1588 -91 1214 -16 
Q 841 59 441 206 
L 441 856 
Q 825 641 1194 531 
Q 1563 422 1919 422 
Q 2459 422 2753 634 
Q 3047 847 3047 1241 
Q 3047 1584 2836 1778 
Q 2625 1972 2144 2069 
L 1759 2144 
Q 1053 2284 737 2584 
Q 422 2884 422 3419 
Q 422 4038 858 4394 
Q 1294 4750 2059 4750 
Q 2388 4750 2728 4690 
Q 3069 4631 3425 4513 
z
" transform="scale(0.015625)"/>
       <path id="DejaVuSans-68" d="M 3513 2113 
L 3513 0 
L 2938 0 
L 2938 2094 
Q 2938 2591 2744 2837 
Q 2550 3084 2163 3084 
Q 1697 3084 1428 2787 
Q 1159 2491 1159 1978 
L 1159 0 
L 581 0 
L 581 4863 
L 1159 4863 
L 1159 2956 
Q 1366 3272 1645 3428 
Q 1925 3584 2291 3584 
Q 2894 3584 3203 3211 
Q 3513 2838 3513 2113 
z
" transform="scale(0.015625)"/>
       <path id="DejaVuSans-65" d="M 3597 1894 
L 3597 1613 
L 953 1613 
Q 991 1019 1311 708 
Q 1631 397 2203 397 
Q 2534 397 2845 478 
Q 3156 559 3463 722 
L 3463 178 
Q 3153 47 2828 -22 
Q 2503 -91 2169 -91 
Q 1331 -91 842 396 
Q 353 884 353 1716 
Q 353 2575 817 3079 
Q 1281 3584 2069 3584 
Q 2775 3584 3186 3129 
Q 3597 2675 3597 1894 
z
M 3022 2063 
Q 3016 2534 2758 2815 
Q 2500 3097 2075 3097 
Q 1594 3097 1305 2825 
Q 1016 2553 972 2059 
L 3022 2063 
z
" transform="scale(0.015625)"/>
       <path id="DejaVuSans-20" transform="scale(0.015625)"/>
       <path id="DejaVuSans-6e" d="M 3513 2113 
L 3513 0 
L 2938 0 
L 2938 2094 
Q 2938 2591 2744 2837 
Q 2550 3084 2163 3084 
Q 1697 3084 1428 2787 
Q 1159 2491 1159 1978 
L 1159 0 
L 581 0 
L 581 3500 
L 1159 3500 
L 1159 2956 
Q 1366 3272 1645 3428 
Q 1925 3584 2291 3584 
Q 2894 3584 3203 3211 
Q 3513 2838 3513 2113 
z
" transform="scale(0.015625)"/>
       <path id="DejaVuSans-74" d="M 1172 4494 
L 1172 3500 
L 2356 3500 
L 2356 3053 
L 1172 3053 
L 1172 1153 
Q 1172 725 1289 603 
Q 1406 481 1766 481 
L 2356 481 
L 2356 0 
L 1766 0 
Q 1100 0 847 248 
Q 594 497 594 1153 
L 594 3053 
L 172 3053 
L 172 3500 
L 594 3500 
L 594 4494 
L 1172 4494 
z
" transform="scale(0.015625)"/>
       <path id="DejaVuSans-73" d="M 2834 3397 
L 2834 2853 
Q 2591 2978 2328 3040 
Q 2066 3103 1784 3103 
Q 1356 3103 1142 2972 
Q 928 2841 928 2578 
Q 928 2378 1081 2264 
Q 1234 2150 1697 2047 
L 1894 2003 
Q 2506 1872 2764 1633 
Q 3022 1394 3022 966 
Q 3022 478 2636 193 
Q 2250 -91 1575 -91 
Q 1294 -91 989 -36 
Q 684 19 347 128 
L 347 722 
Q 666 556 975 473 
Q 1284 391 1588 391 
Q 1994 391 2212 530 
Q 2431 669 2431 922 
Q 2431 1156 2273 1281 
Q 2116 1406 1581 1522 
L 1381 1569 
Q 847 1681 609 1914 
Q 372 2147 372 2553 
Q 372 3047 722 3315 
Q 1072 3584 1716 3584 
Q 2034 3584 2315 3537 
Q 2597 3491 2834 3397 
z
" transform="scale(0.015625)"/>
      </defs>
      <use xlink:href="#DejaVuSans-53"/>
      <use xlink:href="#DejaVuSans-68" transform="translate(63.476562 0)"/>
      <use xlink:href="#DejaVuSans-65" transform="translate(126.855469 0)"/>
      <use xlink:href="#DejaVuSans-20" transform="translate(188.378906 0)"/>
      <use xlink:href="#DejaVuSans-65" transform="translate(220.166016 0)"/>
      <use xlink:href="#DejaVuSans-6e" transform="translate(281.689453 0)"/>
      <use xlink:href="#DejaVuSans-74" transform="translate(345.068359 0)"/>
      <use xlink:href="#DejaVuSans-65" transform="translate(384.277344 0)"/>
      <use xlink:href="#DejaVuSans-72" transform="translate(445.800781 0)"/>
      <use xlink:href="#DejaVuSans-73" transform="translate(486.914062 0)"/>
     </g>
    </g>
    <g id="line2d_32">
     <path d="M 382.246875 94.294688 
L 392.246875 94.294688 
L 402.246875 94.294688 
" style="fill: none; stroke: #28bceb; stroke-width: 4; stroke-linecap: square"/>
    </g>
    <g id="text_20">
     <!-- Goes to the window -->
     <g transform="translate(410.246875 97.794688) scale(0.1 -0.1)">
      <defs>
       <path id="DejaVuSans-77" d="M 269 3500 
L 844 3500 
L 1563 769 
L 2278 3500 
L 2956 3500 
L 3675 769 
L 4391 3500 
L 4966 3500 
L 4050 0 
L 3372 0 
L 2619 2869 
L 1863 0 
L 1184 0 
L 269 3500 
z
" transform="scale(0.015625)"/>
       <path id="DejaVuSans-69" d="M 603 3500 
L 1178 3500 
L 1178 0 
L 603 0 
L 603 3500 
z
M 603 4863 
L 1178 4863 
L 1178 4134 
L 603 4134 
L 603 4863 
z
" transform="scale(0.015625)"/>
       <path id="DejaVuSans-64" d="M 2906 2969 
L 2906 4863 
L 3481 4863 
L 3481 0 
L 2906 0 
L 2906 525 
Q 2725 213 2448 61 
Q 2172 -91 1784 -91 
Q 1150 -91 751 415 
Q 353 922 353 1747 
Q 353 2572 751 3078 
Q 1150 3584 1784 3584 
Q 2172 3584 2448 3432 
Q 2725 3281 2906 2969 
z
M 947 1747 
Q 947 1113 1208 752 
Q 1469 391 1925 391 
Q 2381 391 2643 752 
Q 2906 1113 2906 1747 
Q 2906 2381 2643 2742 
Q 2381 3103 1925 3103 
Q 1469 3103 1208 2742 
Q 947 2381 947 1747 
z
" transform="scale(0.015625)"/>
      </defs>
      <use xlink:href="#DejaVuSans-47"/>
      <use xlink:href="#DejaVuSans-6f" transform="translate(77.490234 0)"/>
      <use xlink:href="#DejaVuSans-65" transform="translate(138.671875 0)"/>
      <use xlink:href="#DejaVuSans-73" transform="translate(200.195312 0)"/>
      <use xlink:href="#DejaVuSans-20" transform="translate(252.294922 0)"/>
      <use xlink:href="#DejaVuSans-74" transform="translate(284.082031 0)"/>
      <use xlink:href="#DejaVuSans-6f" transform="translate(323.291016 0)"/>
      <use xlink:href="#DejaVuSans-20" transform="translate(384.472656 0)"/>
      <use xlink:href="#DejaVuSans-74" transform="translate(416.259766 0)"/>
      <use xlink:href="#DejaVuSans-68" transform="translate(455.46875 0)"/>
      <use xlink:href="#DejaVuSans-65" transform="translate(518.847656 0)"/>
      <use xlink:href="#DejaVuSans-20" transform="translate(580.371094 0)"/>
      <use xlink:href="#DejaVuSans-77" transform="translate(612.158203 0)"/>
      <use xlink:href="#DejaVuSans-69" transform="translate(693.945312 0)"/>
      <use xlink:href="#DejaVuSans-6e" transform="translate(721.728516 0)"/>
      <use xlink:href="#DejaVuSans-64" transform="translate(785.107422 0)"/>
      <use xlink:href="#DejaVuSans-6f" transform="translate(848.583984 0)"/>
      <use xlink:href="#DejaVuSans-77" transform="translate(909.765625 0)"/>
     </g>
    </g>
    <g id="line2d_33">
     <path d="M 382.246875 108.972812 
L 392.246875 108.972812 
L 402.246875 108.972812 
" style="fill: none; stroke: #32f298; stroke-width: 4; stroke-linecap: square"/>
    </g>
    <g id="text_21">
     <!-- He enters -->
     <g transform="translate(410.246875 112.472812) scale(0.1 -0.1)">
      <defs>
       <path id="DejaVuSans-48" d="M 628 4666 
L 1259 4666 
L 1259 2753 
L 3553 2753 
L 3553 4666 
L 4184 4666 
L 4184 0 
L 3553 0 
L 3553 2222 
L 1259 2222 
L 1259 0 
L 628 0 
L 628 4666 
z
" transform="scale(0.015625)"/>
      </defs>
      <use xlink:href="#DejaVuSans-48"/>
      <use xlink:href="#DejaVuSans-65" transform="translate(75.195312 0)"/>
      <use xlink:href="#DejaVuSans-20" transform="translate(136.71875 0)"/>
      <use xlink:href="#DejaVuSans-65" transform="translate(168.505859 0)"/>
      <use xlink:href="#DejaVuSans-6e" transform="translate(230.029297 0)"/>
      <use xlink:href="#DejaVuSans-74" transform="translate(293.408203 0)"/>
      <use xlink:href="#DejaVuSans-65" transform="translate(332.617188 0)"/>
      <use xlink:href="#DejaVuSans-72" transform="translate(394.140625 0)"/>
      <use xlink:href="#DejaVuSans-73" transform="translate(435.253906 0)"/>
     </g>
    </g>
    <g id="line2d_34">
     <path d="M 382.246875 123.650937 
L 392.246875 123.650937 
L 402.246875 123.650937 
" style="fill: none; stroke: #a4fc3c; stroke-width: 4; stroke-linecap: square"/>
    </g>
    <g id="text_22">
     <!-- Dialogue -->
     <g transform="translate(410.246875 127.150937) scale(0.1 -0.1)">
      <defs>
       <path id="DejaVuSans-44" d="M 1259 4147 
L 1259 519 
L 2022 519 
Q 2988 519 3436 956 
Q 3884 1394 3884 2338 
Q 3884 3275 3436 3711 
Q 2988 4147 2022 4147 
L 1259 4147 
z
M 628 4666 
L 1925 4666 
Q 3281 4666 3915 4102 
Q 4550 3538 4550 2338 
Q 4550 1131 3912 565 
Q 3275 0 1925 0 
L 628 0 
L 628 4666 
z
" transform="scale(0.015625)"/>
       <path id="DejaVuSans-61" d="M 2194 1759 
Q 1497 1759 1228 1600 
Q 959 1441 959 1056 
Q 959 750 1161 570 
Q 1363 391 1709 391 
Q 2188 391 2477 730 
Q 2766 1069 2766 1631 
L 2766 1759 
L 2194 1759 
z
M 3341 1997 
L 3341 0 
L 2766 0 
L 2766 531 
Q 2569 213 2275 61 
Q 1981 -91 1556 -91 
Q 1019 -91 701 211 
Q 384 513 384 1019 
Q 384 1609 779 1909 
Q 1175 2209 1959 2209 
L 2766 2209 
L 2766 2266 
Q 2766 2663 2505 2880 
Q 2244 3097 1772 3097 
Q 1472 3097 1187 3025 
Q 903 2953 641 2809 
L 641 3341 
Q 956 3463 1253 3523 
Q 1550 3584 1831 3584 
Q 2591 3584 2966 3190 
Q 3341 2797 3341 1997 
z
" transform="scale(0.015625)"/>
       <path id="DejaVuSans-6c" d="M 603 4863 
L 1178 4863 
L 1178 0 
L 603 0 
L 603 4863 
z
" transform="scale(0.015625)"/>
       <path id="DejaVuSans-67" d="M 2906 1791 
Q 2906 2416 2648 2759 
Q 2391 3103 1925 3103 
Q 1463 3103 1205 2759 
Q 947 2416 947 1791 
Q 947 1169 1205 825 
Q 1463 481 1925 481 
Q 2391 481 2648 825 
Q 2906 1169 2906 1791 
z
M 3481 434 
Q 3481 -459 3084 -895 
Q 2688 -1331 1869 -1331 
Q 1566 -1331 1297 -1286 
Q 1028 -1241 775 -1147 
L 775 -588 
Q 1028 -725 1275 -790 
Q 1522 -856 1778 -856 
Q 2344 -856 2625 -561 
Q 2906 -266 2906 331 
L 2906 616 
Q 2728 306 2450 153 
Q 2172 0 1784 0 
Q 1141 0 747 490 
Q 353 981 353 1791 
Q 353 2603 747 3093 
Q 1141 3584 1784 3584 
Q 2172 3584 2450 3431 
Q 2728 3278 2906 2969 
L 2906 3500 
L 3481 3500 
L 3481 434 
z
" transform="scale(0.015625)"/>
      </defs>
      <use xlink:href="#DejaVuSans-44"/>
      <use xlink:href="#DejaVuSans-69" transform="translate(77.001953 0)"/>
      <use xlink:href="#DejaVuSans-61" transform="translate(104.785156 0)"/>
      <use xlink:href="#DejaVuSans-6c" transform="translate(166.064453 0)"/>
      <use xlink:href="#DejaVuSans-6f" transform="translate(193.847656 0)"/>
      <use xlink:href="#DejaVuSans-67" transform="translate(255.029297 0)"/>
      <use xlink:href="#DejaVuSans-75" transform="translate(318.505859 0)"/>
      <use xlink:href="#DejaVuSans-65" transform="translate(381.884766 0)"/>
     </g>
    </g>
    <g id="line2d_35">
     <path d="M 382.246875 138.329062 
L 392.246875 138.329062 
L 402.246875 138.329062 
" style="fill: none; stroke: #eecf3a; stroke-width: 4; stroke-linecap: square"/>
    </g>
    <g id="text_23">
     <!-- Physical Contact -->
     <g transform="translate(410.246875 141.829062) scale(0.1 -0.1)">
      <defs>
       <path id="DejaVuSans-50" d="M 1259 4147 
L 1259 2394 
L 2053 2394 
Q 2494 2394 2734 2622 
Q 2975 2850 2975 3272 
Q 2975 3691 2734 3919 
Q 2494 4147 2053 4147 
L 1259 4147 
z
M 628 4666 
L 2053 4666 
Q 2838 4666 3239 4311 
Q 3641 3956 3641 3272 
Q 3641 2581 3239 2228 
Q 2838 1875 2053 1875 
L 1259 1875 
L 1259 0 
L 628 0 
L 628 4666 
z
" transform="scale(0.015625)"/>
       <path id="DejaVuSans-63" d="M 3122 3366 
L 3122 2828 
Q 2878 2963 2633 3030 
Q 2388 3097 2138 3097 
Q 1578 3097 1268 2742 
Q 959 2388 959 1747 
Q 959 1106 1268 751 
Q 1578 397 2138 397 
Q 2388 397 2633 464 
Q 2878 531 3122 666 
L 3122 134 
Q 2881 22 2623 -34 
Q 2366 -91 2075 -91 
Q 1284 -91 818 406 
Q 353 903 353 1747 
Q 353 2603 823 3093 
Q 1294 3584 2113 3584 
Q 2378 3584 2631 3529 
Q 2884 3475 3122 3366 
z
" transform="scale(0.015625)"/>
       <path id="DejaVuSans-43" d="M 4122 4306 
L 4122 3641 
Q 3803 3938 3442 4084 
Q 3081 4231 2675 4231 
Q 1875 4231 1450 3742 
Q 1025 3253 1025 2328 
Q 1025 1406 1450 917 
Q 1875 428 2675 428 
Q 3081 428 3442 575 
Q 3803 722 4122 1019 
L 4122 359 
Q 3791 134 3420 21 
Q 3050 -91 2638 -91 
Q 1578 -91 968 557 
Q 359 1206 359 2328 
Q 359 3453 968 4101 
Q 1578 4750 2638 4750 
Q 3056 4750 3426 4639 
Q 3797 4528 4122 4306 
z
" transform="scale(0.015625)"/>
      </defs>
      <use xlink:href="#DejaVuSans-50"/>
      <use xlink:href="#DejaVuSans-68" transform="translate(60.302734 0)"/>
      <use xlink:href="#DejaVuSans-79" transform="translate(123.681641 0)"/>
      <use xlink:href="#DejaVuSans-73" transform="translate(182.861328 0)"/>
      <use xlink:href="#DejaVuSans-69" transform="translate(234.960938 0)"/>
      <use xlink:href="#DejaVuSans-63" transform="translate(262.744141 0)"/>
      <use xlink:href="#DejaVuSans-61" transform="translate(317.724609 0)"/>
      <use xlink:href="#DejaVuSans-6c" transform="translate(379.003906 0)"/>
      <use xlink:href="#DejaVuSans-20" transform="translate(406.787109 0)"/>
      <use xlink:href="#DejaVuSans-43" transform="translate(438.574219 0)"/>
      <use xlink:href="#DejaVuSans-6f" transform="translate(508.398438 0)"/>
      <use xlink:href="#DejaVuSans-6e" transform="translate(569.580078 0)"/>
      <use xlink:href="#DejaVuSans-74" transform="translate(632.958984 0)"/>
      <use xlink:href="#DejaVuSans-61" transform="translate(672.167969 0)"/>
      <use xlink:href="#DejaVuSans-63" transform="translate(733.447266 0)"/>
      <use xlink:href="#DejaVuSans-74" transform="translate(788.427734 0)"/>
     </g>
    </g>
    <g id="line2d_36">
     <path d="M 382.246875 153.007187 
L 392.246875 153.007187 
L 402.246875 153.007187 
" style="fill: none; stroke: #fb7e21; stroke-width: 4; stroke-linecap: square"/>
    </g>
    <g id="text_24">
     <!-- Embrace -->
     <g transform="translate(410.246875 156.507187) scale(0.1 -0.1)">
      <defs>
       <path id="DejaVuSans-45" d="M 628 4666 
L 3578 4666 
L 3578 4134 
L 1259 4134 
L 1259 2753 
L 3481 2753 
L 3481 2222 
L 1259 2222 
L 1259 531 
L 3634 531 
L 3634 0 
L 628 0 
L 628 4666 
z
" transform="scale(0.015625)"/>
       <path id="DejaVuSans-6d" d="M 3328 2828 
Q 3544 3216 3844 3400 
Q 4144 3584 4550 3584 
Q 5097 3584 5394 3201 
Q 5691 2819 5691 2113 
L 5691 0 
L 5113 0 
L 5113 2094 
Q 5113 2597 4934 2840 
Q 4756 3084 4391 3084 
Q 3944 3084 3684 2787 
Q 3425 2491 3425 1978 
L 3425 0 
L 2847 0 
L 2847 2094 
Q 2847 2600 2669 2842 
Q 2491 3084 2119 3084 
Q 1678 3084 1418 2786 
Q 1159 2488 1159 1978 
L 1159 0 
L 581 0 
L 581 3500 
L 1159 3500 
L 1159 2956 
Q 1356 3278 1631 3431 
Q 1906 3584 2284 3584 
Q 2666 3584 2933 3390 
Q 3200 3197 3328 2828 
z
" transform="scale(0.015625)"/>
       <path id="DejaVuSans-62" d="M 3116 1747 
Q 3116 2381 2855 2742 
Q 2594 3103 2138 3103 
Q 1681 3103 1420 2742 
Q 1159 2381 1159 1747 
Q 1159 1113 1420 752 
Q 1681 391 2138 391 
Q 2594 391 2855 752 
Q 3116 1113 3116 1747 
z
M 1159 2969 
Q 1341 3281 1617 3432 
Q 1894 3584 2278 3584 
Q 2916 3584 3314 3078 
Q 3713 2572 3713 1747 
Q 3713 922 3314 415 
Q 2916 -91 2278 -91 
Q 1894 -91 1617 61 
Q 1341 213 1159 525 
L 1159 0 
L 581 0 
L 581 4863 
L 1159 4863 
L 1159 2969 
z
" transform="scale(0.015625)"/>
      </defs>
      <use xlink:href="#DejaVuSans-45"/>
      <use xlink:href="#DejaVuSans-6d" transform="translate(63.183594 0)"/>
      <use xlink:href="#DejaVuSans-62" transform="translate(160.595703 0)"/>
      <use xlink:href="#DejaVuSans-72" transform="translate(224.072266 0)"/>
      <use xlink:href="#DejaVuSans-61" transform="translate(265.185547 0)"/>
      <use xlink:href="#DejaVuSans-63" transform="translate(326.464844 0)"/>
      <use xlink:href="#DejaVuSans-65" transform="translate(381.445312 0)"/>
     </g>
    </g>
    <g id="line2d_37">
     <path d="M 382.246875 167.685313 
L 392.246875 167.685313 
L 402.246875 167.685313 
" style="fill: none; stroke: #d02f05; stroke-width: 4; stroke-linecap: square"/>
    </g>
    <g id="text_25">
     <!-- End -->
     <g transform="translate(410.246875 171.185313) scale(0.1 -0.1)">
      <use xlink:href="#DejaVuSans-45"/>
      <use xlink:href="#DejaVuSans-6e" transform="translate(63.183594 0)"/>
      <use xlink:href="#DejaVuSans-64" transform="translate(126.5625 0)"/>
     </g>
    </g>
   </g>
  </g>
 </g>
 <defs>
  <clipPath id="p7e7f7d7e9a">
   <rect x="72" y="51.84" width="446.4" height="332.64"/>
  </clipPath>
 </defs>
</svg>
